<svg xmlns="http://www.w3.org/2000/svg" xmlns:xlink="http://www.w3.org/1999/xlink" id="body_1" preserveAspectRatio="xMinYMin meet" viewBox="0 0 793 1121"><defs><clipPath id="1"><path clip-rule="evenodd" d="M0 841L0 -0.8900146L0 -0.8900146L595.276 -0.8900146L595.276 -0.8900146L595.276 841L595.276 841L0 841z" /></clipPath></defs><g transform="matrix(1.333333 0 0 1.333333 0 0)"><g clip-path="url(#1)"><path transform="matrix(1 0 0 -1 0 841)" d="M70.866 743.586L524.409 743.586L524.409 745.003L70.866 745.003z" stroke="none" fill="#000000" fill-rule="nonzero" /><path transform="matrix(1 0 0 -1 0 841)" d="M134.201 336.075L137.633 336.075L137.633 339.507L134.201 339.507z" stroke="none" fill="#000000" fill-rule="nonzero" /><path transform="matrix(1 0 0 -1 0 841)" d="M74.187 281.308L77.619 281.308L77.619 284.74L74.187 284.74z" stroke="none" fill="#000000" fill-rule="nonzero" /><path transform="matrix(1 0 0 -1 0 841)" d="M74.187 221.314L77.619 221.314L77.619 224.746L74.187 224.746z" stroke="none" fill="#000000" fill-rule="nonzero" /><path transform="matrix(1 0 0 -1 0 841)" d="M74.187 140.426L77.619 140.426L77.619 143.858L74.187 143.858z" stroke="none" fill="#000000" fill-rule="nonzero" /><path transform="matrix(1 0 0 -1 0 841)" d="M74.187 125.501L77.619 125.501L77.619 128.933L74.187 128.933z" stroke="none" fill="#000000" fill-rule="nonzero" /></g></g></svg>